<?xml version="1.0" encoding="utf-8"?>
<svg viewBox="0 0 500 500" xmlns="http://www.w3.org/2000/svg">
  <path d="M 267.854 227.913 C 267.854 233.449 267.884 238.983 267.884 244.551 C 271.7 246.989 275.516 249.428 279.33 251.867 L 346.906 295.147 L 346.906 288.923 C 346.906 259.059 346.906 229.165 346.937 199.303 L 267.697 151.52 L 267.854 227.883 L 267.854 227.913 Z" fill="black" style=""/>
  <path d="M 148.62 173.19 L 193.525 146.675 C 212.442 135.509 231.392 124.316 250.311 113.121 C 251.623 112.34 252.939 111.963 254.283 111.963 C 255.595 111.963 256.971 112.37 258.284 113.184 C 269.637 120.095 281.05 126.942 292.432 133.823 L 310.757 144.89 C 327.204 154.805 343.654 164.717 360.1 174.66 C 380.426 162.34 400.754 150.082 421.11 137.794 L 447.66 121.752 L 332.96 51.705 C 306.629 35.602 280.299 19.497 254.001 3.394 C 238.961 12.65 223.888 21.874 208.816 31.099 L 60.907 121.689 L 76.011 130.569 C 100.213 144.798 124.417 159.025 148.62 173.254 L 148.62 173.224 L 148.62 173.19 Z" fill="#3DDE74" style=""/>
  <path d="M 239.179 394.646 L 238.867 394.428 L 173.825 352.62 C 162.411 345.271 151.028 337.922 139.614 330.605 C 137.051 328.98 135.643 326.384 135.674 323.32 C 135.674 319.974 135.674 316.597 135.643 313.22 L 134.612 222.628 C 134.517 214.155 134.423 205.65 134.36 197.175 C 132.061 195.843 129.767 194.498 127.481 193.14 L 46.617 145.642 L 46.617 272.786 C 46.617 308.904 46.617 345.051 46.586 381.17 C 64.542 391.976 82.493 402.793 100.432 413.627 L 240.429 498.183 L 240.429 493.899 C 240.429 483.486 240.429 473.198 240.429 462.879 C 240.461 448.62 240.493 434.36 240.554 420.1 L 240.618 396.929 C 240.618 396.462 240.649 396.022 240.679 395.524 C 240.273 395.306 239.898 395.086 239.523 394.865 C 239.492 394.834 239.179 394.616 239.148 394.616 L 239.179 394.646 Z" fill="black" style=""/>
  <path d="M 162.566 197.426 C 162.193 197.645 161.784 197.863 161.379 198.051 C 161.41 198.458 161.441 198.864 161.441 199.269 L 162.411 294.176 L 170.604 288.954 C 193.995 274.065 217.395 259.192 240.806 244.332 C 240.773 232.198 240.773 220.065 240.773 207.9 L 240.743 151.271 L 162.566 197.394 L 162.566 197.426 Z" fill="#AAAAAA" style=""/>
  <path d="M 334.021 320.069 L 294.059 294.457 C 280.762 285.94 267.471 277.414 254.189 268.879 C 233.864 281.856 213.507 294.803 193.149 307.746 L 174.294 319.723 L 190.148 329.917 C 211.442 343.615 232.767 357.311 254.064 371.039 C 275.079 357.623 296.091 344.238 317.104 330.857 L 334.021 320.069 Z" fill="#3DDE74" style=""/>
  <path d="M 461.292 146.174 L 458.508 147.862 C 430.303 164.904 402.096 181.916 373.86 198.926 C 373.892 223.598 373.892 248.271 373.892 272.975 L 373.892 323.351 C 373.892 326.29 372.642 328.637 370.233 330.167 C 366.011 332.827 361.821 335.516 357.6 338.205 L 344.122 346.803 C 318.636 363.065 293.152 379.294 267.635 395.553 C 267.605 403.059 267.574 410.595 267.541 418.1 L 267.26 498.246 L 324.234 463.818 C 369.922 436.206 415.607 408.624 461.292 381.075 C 461.259 305.059 461.259 229.071 461.259 153.053 L 461.259 146.235 L 461.292 146.174 Z" fill="#AAAAAA" style=""/>
</svg>